<?xml version="1.0" encoding="UTF-8"?>
<svg width="600" height="210" version="1.1" xmlns="http://www.w3.org/2000/svg">
 <path d="m149.67 143.44v-132.75h-22.75l0.0407 132.75s0.0144 4.295-0.26252 9.0026c-0.5063 7.2208-1.463 16.692-7.3897 23.688-4.5387 5.3641-11.535 7.7272-16.692 8.6275-4.9328 0.89964-14.479 0.48725-18.155-0.18798-5.3453-0.9568-11.853-3.301-16.636-9.0214-5.9078-7.0334-7.277-17.161-7.6335-24.195-0.22472-4.7451-0.0544-8.1211-0.0544-8.1211h-0.0407v-132.51h-0.6751l-49.421 0.0545v3.2821c19.168 1.5755 16.373 9.6778 16.617 24.832v104.34s0.0544 4.1075 0.73086 9.6966c1.9318 15.323 9.3402 45.876 65.682 46.101 18.624-0.37566 33.666-4.1824 42.125-12.773 14.761-12.641 14.517-42.819 14.517-42.819m59.641-41.185 18.606-51.427 19.318 51.427zm32.391-91.527-38.711-0.0144v3.3197c13.335 1.1446 15.848 6.9582 14.386 14.517-0.26252 2.0818-2.3445 8.0649-4.5951 14.029-2.7946 7.5585-58.479 156.68-58.479 156.68h21.362l30.478-83.612h45.426l30.009 83.612h31.453zm303.95 172.42c-20.106 0-22.506-8.0274-22.506-23.444l-0.46821-57.523h51.146v-0.69409h0.0954v-10.428s-0.0407 0-0.0954-0.0144v-4.2012h-51.015l-0.13612-0.0144 0.0144-44.788c0-14.273 1.3692-17.255 17.049-17.255h50.208l0.0544-14.066h-117.67v3.3197c19.206 1.5379 16.43 9.6778 16.655 24.851v160.34h101.02v-16.073zm-114.82-63.618c-0.45052 4.7076-1.1623 9.8842-2.3069 14.986-1.2753 5.9831-4.8764 16.861-7.5021 22-3.9012 7.5397-8.0273 15.473-17.555 21.119-9.8652 5.8143-17.293 8.2524-30.628 8.2524-4.0512 0-7.6898-0.71315-10.128-1.4816v-159.16c2.4194-0.80573 5.664-1.0875 9.7528-1.0875 50.49 0 58.311 37.286 59.136 77.591 0.0544 3.1509 0.0407 9.8466-0.76897 17.78m34.398-17.78c-0.0407-77.666-45.595-90.608-103.76-91.001l-49.458 0.0407v3.2822c19.206 1.5754 16.43 9.6966 16.617 24.832v105.5h0.24344v54.897l32.597 0.0144c47.639-0.30069 86.125-9.1152 98.823-54.897h0.0407c3.2822-11.61 4.8952-25.676 4.8952-42.669" fill="#00405c"/>
</svg>
